<svg height="512pt" viewBox="0 0 512 512" width="512pt" xmlns="http://www.w3.org/2000/svg" xmlns:xlink="http://www.w3.org/1999/xlink"><linearGradient id="a" gradientUnits="userSpaceOnUse" x1="0" x2="512" y1="256" y2="256"><stop offset="0" stop-color="#00f38d"/><stop offset="1" stop-color="#009eff"/></linearGradient><path d="m512 256c0 141.386719-114.613281 256-256 256s-256-114.613281-256-256 114.613281-256 256-256 256 114.613281 256 256zm0 0" fill="url(#a)"/><path d="m429.871094 428.265625h-169.136719c-21.945313 0-41.394531-13.972656-48.390625-34.773437-8.769531-26.070313-22.566406-63.832032-38.472656-95.683594-25.660156-51.386719-39.15625-51.976563-39.71875-51.976563-1.378906 0-2.503906 1.121094-2.503906 2.503907h-.511719c.171875.554687.34375 1.109374.515625 1.671874 11.140625 36.445313 15.480468 85.992188 15.480468 176.722657h-30c0-86.367188-4.105468-135.027344-14.171874-167.953125-2.640626-8.636719-5.238282-16.261719-7.753907-23.636719-7.019531-20.585937-13.082031-38.359375-13.082031-60.183594 0-43.640625 22.320312-78.699219 23.269531-80.167969l9.722657-15.054687 13.105468 12.21875c54.546875 50.863281 114.09375 136.394531 156.773438 224.855469h46.046875l4.425781 4.597656c11.605469 12.054688 26.457031 19.179688 40.8125 26.074219 25.121094 12.054687 53.589844 25.71875 53.589844 65.785156zm-295.71875-212.433594c22.046875 0 43.195312 21.789063 66.558594 68.570313 16.675781 33.394531 30.992187 72.550781 40.066406 99.523437 2.886718 8.578125 10.90625 14.339844 19.960937 14.339844h136.046875c-4.886718-9.597656-15.707031-15.210937-33.480468-23.742187-14.371094-6.898438-30.464844-14.625-44.734376-27.714844h-52.578124l-4.050782-8.628906c-44.109375-94.066407-98.660156-167.480469-139.796875-210.113282-4.863281 11.765625-10.015625 28.554688-10.015625 46.890625 0 14.785157 3.707032 27.464844 9.113282 43.550781 3.957031-1.722656 8.324218-2.675781 12.910156-2.675781zm0 0" fill="#fff"/></svg>